<mxfile host="app.diagrams.net" modified="2022-08-31T17:59:46.893Z" agent="5.0 (Macintosh; Intel Mac OS X 10_15_7) AppleWebKit/537.36 (KHTML, like Gecko) Chrome/104.0.0.0 Safari/537.36" etag="2zvC7lb3-9DcNHwW3r24" version="20.2.6" type="github">
  <diagram id="6a731a19-8d31-9384-78a2-239565b7b9f0" name="Page-1">
    <mxGraphModel dx="1901" dy="1059" grid="1" gridSize="10" guides="1" tooltips="1" connect="1" arrows="1" fold="1" page="1" pageScale="1" pageWidth="1169" pageHeight="827" background="none" math="0" shadow="0">
      <root>
        <mxCell id="0" />
        <mxCell id="1" parent="0" />
        <mxCell id="1745" value="" style="edgeStyle=none;rounded=0;jumpStyle=none;html=1;shadow=0;labelBackgroundColor=none;startArrow=none;startFill=0;endArrow=classic;endFill=1;jettySize=auto;orthogonalLoop=1;strokeColor=#2F5B7C;strokeWidth=3;fontFamily=Helvetica;fontSize=16;fontColor=#23445D;spacing=5;entryX=1;entryY=0.75;entryDx=0;entryDy=0;exitX=0;exitY=0.75;exitDx=0;exitDy=0;" parent="1" source="rBbMezTzvkGCzsImdgay-1779" target="1749" edge="1">
          <mxGeometry relative="1" as="geometry">
            <mxPoint x="517" y="350" as="sourcePoint" />
            <mxPoint x="555" y="310" as="targetPoint" />
          </mxGeometry>
        </mxCell>
        <mxCell id="1748" value="" style="edgeStyle=none;rounded=0;jumpStyle=none;html=1;shadow=0;labelBackgroundColor=none;startArrow=none;startFill=0;endArrow=classic;endFill=1;jettySize=auto;orthogonalLoop=1;strokeColor=#2F5B7C;strokeWidth=3;fontFamily=Helvetica;fontSize=16;fontColor=#23445D;spacing=5;entryX=0.597;entryY=0.102;entryDx=0;entryDy=0;entryPerimeter=0;" parent="1" source="1749" target="1753" edge="1">
          <mxGeometry relative="1" as="geometry" />
        </mxCell>
        <mxCell id="1749" value="Source Code&lt;span style=&quot;color: rgba(0, 0, 0, 0); font-family: monospace; font-size: 0px; font-weight: 400; text-align: start;&quot;&gt;%3CmxGraphModel%3E%3Croot%3E%3CmxCell%20id%3D%220%22%2F%3E%3CmxCell%20id%3D%221%22%20parent%3D%220%22%2F%3E%3CmxCell%20id%3D%222%22%20value%3D%22%22%20style%3D%22edgeStyle%3Dnone%3Brounded%3D1%3BjumpStyle%3Dnone%3Bhtml%3D1%3Bshadow%3D0%3BlabelBackgroundColor%3Dnone%3BstartArrow%3Dnone%3BstartFill%3D0%3BjettySize%3Dauto%3BorthogonalLoop%3D1%3BstrokeColor%3D%23E85642%3BstrokeWidth%3D3%3BfontFamily%3DHelvetica%3BfontSize%3D14%3BfontColor%3D%23FFFFFF%3Bspacing%3D5%3BfontStyle%3D1%3BfillColor%3D%23b0e3e6%3BexitX%3D0.818%3BexitY%3D0%3BexitDx%3D0%3BexitDy%3D0%3BexitPerimeter%3D0%3BentryX%3D0.305%3BentryY%3D0.959%3BentryDx%3D0%3BentryDy%3D0%3BentryPerimeter%3D0%3B%22%20edge%3D%221%22%20parent%3D%221%22%3E%3CmxGeometry%20relative%3D%221%22%20as%3D%22geometry%22%3E%3CmxPoint%20x%3D%22703.9720000000002%22%20y%3D%22458%22%20as%3D%22sourcePoint%22%2F%3E%3CmxPoint%20x%3D%22774.9699999999998%22%20y%3D%22352.9659999999999%22%20as%3D%22targetPoint%22%2F%3E%3C%2FmxGeometry%3E%3C%2FmxCell%3E%3C%2Froot%3E%3C%2FmxGraphModel%3E&lt;/span&gt;" style="rounded=1;whiteSpace=wrap;html=1;shadow=0;labelBackgroundColor=none;strokeColor=none;strokeWidth=3;fillColor=#2F5B7C;fontFamily=Helvetica;fontSize=16;fontColor=#FFFFFF;align=center;fontStyle=1;spacing=5;arcSize=7;perimeterSpacing=2;" parent="1" vertex="1">
          <mxGeometry x="230" y="254.5" width="150" height="70" as="geometry" />
        </mxCell>
        <mxCell id="1750" value="" style="edgeStyle=none;rounded=1;jumpStyle=none;html=1;shadow=0;labelBackgroundColor=none;startArrow=none;startFill=0;jettySize=auto;orthogonalLoop=1;strokeColor=#E85642;strokeWidth=3;fontFamily=Helvetica;fontSize=14;fontColor=#FFFFFF;spacing=5;fontStyle=1;fillColor=#b0e3e6;" parent="1" source="1753" target="1756" edge="1">
          <mxGeometry relative="1" as="geometry" />
        </mxCell>
        <mxCell id="1751" value="" style="edgeStyle=none;rounded=1;jumpStyle=none;html=1;shadow=0;labelBackgroundColor=none;startArrow=none;startFill=0;jettySize=auto;orthogonalLoop=1;strokeColor=#E85642;strokeWidth=3;fontFamily=Helvetica;fontSize=14;fontColor=#FFFFFF;spacing=5;fontStyle=1;fillColor=#b0e3e6;" parent="1" source="1753" target="1755" edge="1">
          <mxGeometry relative="1" as="geometry" />
        </mxCell>
        <mxCell id="1752" value="" style="edgeStyle=none;rounded=1;jumpStyle=none;html=1;shadow=0;labelBackgroundColor=none;startArrow=none;startFill=0;jettySize=auto;orthogonalLoop=1;strokeColor=#E85642;strokeWidth=3;fontFamily=Helvetica;fontSize=14;fontColor=#FFFFFF;spacing=5;fontStyle=1;fillColor=#b0e3e6;" parent="1" source="1753" target="1754" edge="1">
          <mxGeometry relative="1" as="geometry" />
        </mxCell>
        <mxCell id="1753" value="Dev Teams" style="rounded=1;whiteSpace=wrap;html=1;shadow=0;labelBackgroundColor=none;strokeColor=none;strokeWidth=3;fillColor=#e85642;fontFamily=Helvetica;fontSize=14;fontColor=#FFFFFF;align=center;spacing=5;fontStyle=1;arcSize=7;perimeterSpacing=2;" parent="1" vertex="1">
          <mxGeometry x="215" y="385.5" width="150" height="60" as="geometry" />
        </mxCell>
        <mxCell id="1754" value="GitHub" style="rounded=1;whiteSpace=wrap;html=1;shadow=0;labelBackgroundColor=none;strokeColor=none;strokeWidth=3;fillColor=#f08e81;fontFamily=Helvetica;fontSize=14;fontColor=#FFFFFF;align=center;spacing=5;fontStyle=0;arcSize=7;perimeterSpacing=2;" parent="1" vertex="1">
          <mxGeometry x="14" y="370" width="150" height="60" as="geometry" />
        </mxCell>
        <mxCell id="1755" value="VPN" style="rounded=1;whiteSpace=wrap;html=1;shadow=0;labelBackgroundColor=none;strokeColor=none;strokeWidth=3;fillColor=#f08e81;fontFamily=Helvetica;fontSize=14;fontColor=#FFFFFF;align=center;spacing=5;fontStyle=0;arcSize=7;perimeterSpacing=2;" parent="1" vertex="1">
          <mxGeometry x="14" y="264.5" width="150" height="60" as="geometry" />
        </mxCell>
        <mxCell id="1756" value="Digital Ocean" style="rounded=1;whiteSpace=wrap;html=1;shadow=0;labelBackgroundColor=none;strokeColor=none;strokeWidth=3;fillColor=#f08e81;fontFamily=Helvetica;fontSize=14;fontColor=#FFFFFF;align=center;spacing=5;fontStyle=0;arcSize=7;perimeterSpacing=2;" parent="1" vertex="1">
          <mxGeometry x="50" y="160" width="150" height="60" as="geometry" />
        </mxCell>
        <mxCell id="1757" value="" style="edgeStyle=none;rounded=0;jumpStyle=none;html=1;shadow=0;labelBackgroundColor=none;startArrow=none;startFill=0;endArrow=classic;endFill=1;jettySize=auto;orthogonalLoop=1;strokeColor=#1699D3;strokeWidth=3;fontFamily=Helvetica;fontSize=14;fontColor=#FFFFFF;spacing=5;" parent="1" source="1760" target="1763" edge="1">
          <mxGeometry relative="1" as="geometry" />
        </mxCell>
        <mxCell id="1758" value="" style="edgeStyle=none;rounded=0;jumpStyle=none;html=1;shadow=0;labelBackgroundColor=none;startArrow=none;startFill=0;endArrow=classic;endFill=1;jettySize=auto;orthogonalLoop=1;strokeColor=#1699D3;strokeWidth=3;fontFamily=Helvetica;fontSize=14;fontColor=#FFFFFF;spacing=5;" parent="1" source="1760" target="1762" edge="1">
          <mxGeometry relative="1" as="geometry" />
        </mxCell>
        <mxCell id="1759" value="" style="edgeStyle=none;rounded=0;jumpStyle=none;html=1;shadow=0;labelBackgroundColor=none;startArrow=none;startFill=0;endArrow=classic;endFill=1;jettySize=auto;orthogonalLoop=1;strokeColor=#1699D3;strokeWidth=3;fontFamily=Helvetica;fontSize=14;fontColor=#FFFFFF;spacing=5;" parent="1" source="1760" target="1761" edge="1">
          <mxGeometry relative="1" as="geometry" />
        </mxCell>
        <mxCell id="1760" value="Bluon" style="rounded=1;whiteSpace=wrap;html=1;shadow=0;labelBackgroundColor=none;strokeColor=none;strokeWidth=3;fillColor=#1699d3;fontFamily=Helvetica;fontSize=14;fontColor=#FFFFFF;align=center;spacing=5;fontStyle=1;arcSize=7;perimeterSpacing=2;" parent="1" vertex="1">
          <mxGeometry x="475" y="650" width="150" height="60" as="geometry" />
        </mxCell>
        <mxCell id="1761" value="Bluon App" style="rounded=1;whiteSpace=wrap;html=1;shadow=0;labelBackgroundColor=none;strokeColor=none;strokeWidth=3;fillColor=#64bbe2;fontFamily=Helvetica;fontSize=14;fontColor=#FFFFFF;align=center;spacing=5;arcSize=7;perimeterSpacing=2;" parent="1" vertex="1">
          <mxGeometry x="655" y="729" width="150" height="60" as="geometry" />
        </mxCell>
        <mxCell id="1762" value="Bluon.com" style="rounded=1;whiteSpace=wrap;html=1;shadow=0;labelBackgroundColor=none;strokeColor=none;strokeWidth=3;fillColor=#64bbe2;fontFamily=Helvetica;fontSize=14;fontColor=#FFFFFF;align=center;spacing=5;arcSize=7;perimeterSpacing=2;" parent="1" vertex="1">
          <mxGeometry x="475" y="759" width="150" height="60" as="geometry" />
        </mxCell>
        <mxCell id="1763" value="Bluon Live" style="rounded=1;whiteSpace=wrap;html=1;shadow=0;labelBackgroundColor=none;strokeColor=none;strokeWidth=3;fillColor=#64bbe2;fontFamily=Helvetica;fontSize=14;fontColor=#FFFFFF;align=center;spacing=5;arcSize=7;perimeterSpacing=2;" parent="1" vertex="1">
          <mxGeometry x="285" y="729" width="150" height="60" as="geometry" />
        </mxCell>
        <mxCell id="1764" value="Marketing" style="rounded=1;whiteSpace=wrap;html=1;shadow=0;labelBackgroundColor=none;strokeColor=none;strokeWidth=3;fillColor=#F08705;fontFamily=Helvetica;fontSize=14;fontColor=#FFFFFF;align=center;spacing=5;fontStyle=1;arcSize=7;perimeterSpacing=2;" parent="1" vertex="1">
          <mxGeometry x="560" y="120" width="150" height="60" as="geometry" />
        </mxCell>
        <mxCell id="1765" value="Coda" style="rounded=1;whiteSpace=wrap;html=1;shadow=0;labelBackgroundColor=none;strokeColor=none;strokeWidth=3;fillColor=#f5af58;fontFamily=Helvetica;fontSize=14;fontColor=#FFFFFF;align=center;spacing=5;arcSize=7;perimeterSpacing=2;" parent="1" vertex="1">
          <mxGeometry x="790" y="50" width="150" height="60" as="geometry" />
        </mxCell>
        <mxCell id="1766" value="" style="edgeStyle=none;rounded=0;jumpStyle=none;html=1;shadow=0;labelBackgroundColor=none;startArrow=none;startFill=0;endArrow=classic;endFill=1;jettySize=auto;orthogonalLoop=1;strokeColor=#F08705;strokeWidth=3;fontFamily=Helvetica;fontSize=14;fontColor=#FFFFFF;spacing=5;" parent="1" source="1764" target="1765" edge="1">
          <mxGeometry relative="1" as="geometry" />
        </mxCell>
        <mxCell id="1767" value="Media" style="rounded=1;whiteSpace=wrap;html=1;shadow=0;labelBackgroundColor=none;strokeColor=none;strokeWidth=3;fillColor=#f5af58;fontFamily=Helvetica;fontSize=14;fontColor=#FFFFFF;align=center;spacing=5;arcSize=7;perimeterSpacing=2;" parent="1" vertex="1">
          <mxGeometry x="560" y="10" width="150" height="60" as="geometry" />
        </mxCell>
        <mxCell id="1768" value="" style="edgeStyle=none;rounded=0;jumpStyle=none;html=1;shadow=0;labelBackgroundColor=none;startArrow=none;startFill=0;endArrow=classic;endFill=1;jettySize=auto;orthogonalLoop=1;strokeColor=#F08705;strokeWidth=3;fontFamily=Helvetica;fontSize=14;fontColor=#FFFFFF;spacing=5;" parent="1" source="1764" target="1767" edge="1">
          <mxGeometry relative="1" as="geometry" />
        </mxCell>
        <mxCell id="1769" value="" style="rounded=1;whiteSpace=wrap;html=1;shadow=0;labelBackgroundColor=none;strokeColor=none;strokeWidth=3;fillColor=#f5af58;fontFamily=Helvetica;fontSize=14;fontColor=#FFFFFF;align=center;spacing=5;arcSize=7;perimeterSpacing=2;" parent="1" vertex="1">
          <mxGeometry x="350" y="40" width="150" height="60" as="geometry" />
        </mxCell>
        <mxCell id="1770" value="" style="edgeStyle=none;rounded=0;jumpStyle=none;html=1;shadow=0;labelBackgroundColor=none;startArrow=none;startFill=0;endArrow=classic;endFill=1;jettySize=auto;orthogonalLoop=1;strokeColor=#F08705;strokeWidth=3;fontFamily=Helvetica;fontSize=14;fontColor=#FFFFFF;spacing=5;" parent="1" source="1764" target="1769" edge="1">
          <mxGeometry relative="1" as="geometry" />
        </mxCell>
        <mxCell id="1771" value="Tech Support" style="rounded=1;whiteSpace=wrap;html=1;shadow=0;labelBackgroundColor=none;strokeColor=none;strokeWidth=3;fillColor=#12aab5;fontFamily=Helvetica;fontSize=14;fontColor=#FFFFFF;align=center;spacing=5;fontStyle=1;arcSize=7;perimeterSpacing=2;" parent="1" vertex="1">
          <mxGeometry x="900" y="309.9999999999999" width="150" height="60" as="geometry" />
        </mxCell>
        <mxCell id="1774" value="Media" style="rounded=1;whiteSpace=wrap;html=1;shadow=0;labelBackgroundColor=none;strokeColor=none;strokeWidth=3;fillColor=#61c6ce;fontFamily=Helvetica;fontSize=14;fontColor=#FFFFFF;align=center;spacing=5;fontStyle=0;arcSize=7;perimeterSpacing=2;" parent="1" vertex="1">
          <mxGeometry x="830" y="150" width="150" height="60" as="geometry" />
        </mxCell>
        <mxCell id="1775" value="" style="edgeStyle=none;rounded=1;jumpStyle=none;html=1;shadow=0;labelBackgroundColor=none;startArrow=none;startFill=0;jettySize=auto;orthogonalLoop=1;strokeColor=#12AAB5;strokeWidth=3;fontFamily=Helvetica;fontSize=14;fontColor=#FFFFFF;spacing=5;fontStyle=1;fillColor=#b0e3e6;exitX=0.25;exitY=0;exitDx=0;exitDy=0;" parent="1" source="1771" target="1774" edge="1">
          <mxGeometry relative="1" as="geometry" />
        </mxCell>
        <mxCell id="1776" value="Suppliers" style="rounded=1;whiteSpace=wrap;html=1;shadow=0;labelBackgroundColor=none;strokeColor=none;strokeWidth=3;fillColor=#61c6ce;fontFamily=Helvetica;fontSize=14;fontColor=#FFFFFF;align=center;spacing=5;fontStyle=0;arcSize=7;perimeterSpacing=2;" parent="1" vertex="1">
          <mxGeometry x="1050" y="230" width="105" height="60" as="geometry" />
        </mxCell>
        <mxCell id="1777" value="" style="edgeStyle=none;rounded=1;jumpStyle=none;html=1;shadow=0;labelBackgroundColor=none;startArrow=none;startFill=0;jettySize=auto;orthogonalLoop=1;strokeColor=#12AAB5;strokeWidth=3;fontFamily=Helvetica;fontSize=14;fontColor=#FFFFFF;spacing=5;fontStyle=1;fillColor=#b0e3e6;" parent="1" target="1776" edge="1">
          <mxGeometry relative="1" as="geometry">
            <mxPoint x="1040" y="320" as="sourcePoint" />
          </mxGeometry>
        </mxCell>
        <mxCell id="1778" value="PR" style="rounded=1;whiteSpace=wrap;html=1;shadow=0;labelBackgroundColor=none;strokeColor=none;strokeWidth=3;fillColor=#61c6ce;fontFamily=Helvetica;fontSize=14;fontColor=#FFFFFF;align=center;spacing=5;fontStyle=0;arcSize=7;perimeterSpacing=2;" parent="1" vertex="1">
          <mxGeometry x="990" y="140" width="150" height="60" as="geometry" />
        </mxCell>
        <mxCell id="1779" value="" style="edgeStyle=none;rounded=1;jumpStyle=none;html=1;shadow=0;labelBackgroundColor=none;startArrow=none;startFill=0;jettySize=auto;orthogonalLoop=1;strokeColor=#12AAB5;strokeWidth=3;fontFamily=Helvetica;fontSize=14;fontColor=#FFFFFF;spacing=5;fontStyle=1;fillColor=#b0e3e6;exitX=0.69;exitY=0.036;exitDx=0;exitDy=0;exitPerimeter=0;" parent="1" source="1771" edge="1">
          <mxGeometry relative="1" as="geometry">
            <mxPoint x="1040" y="200" as="targetPoint" />
          </mxGeometry>
        </mxCell>
        <mxCell id="rBbMezTzvkGCzsImdgay-1779" value="Database" style="rounded=1;whiteSpace=wrap;html=1;shadow=0;labelBackgroundColor=none;strokeColor=none;strokeWidth=3;fillColor=#2F5B7C;fontFamily=Helvetica;fontSize=16;fontColor=#FFFFFF;align=center;fontStyle=1;spacing=5;arcSize=7;perimeterSpacing=2;glass=0;sketch=0;" vertex="1" parent="1">
          <mxGeometry x="420" y="254.5" width="150" height="70" as="geometry" />
        </mxCell>
        <mxCell id="rBbMezTzvkGCzsImdgay-1781" value="" style="edgeStyle=none;rounded=0;jumpStyle=none;html=1;shadow=0;labelBackgroundColor=none;startArrow=none;startFill=0;endArrow=classic;endFill=1;jettySize=auto;orthogonalLoop=1;strokeColor=#2F5B7C;strokeWidth=3;fontFamily=Helvetica;fontSize=16;fontColor=#23445D;spacing=5;exitX=1;exitY=0.25;exitDx=0;exitDy=0;entryX=0;entryY=0.25;entryDx=0;entryDy=0;" edge="1" parent="1" source="1749" target="rBbMezTzvkGCzsImdgay-1779">
          <mxGeometry relative="1" as="geometry">
            <mxPoint x="450" y="270" as="sourcePoint" />
            <mxPoint x="510" y="270" as="targetPoint" />
          </mxGeometry>
        </mxCell>
        <mxCell id="rBbMezTzvkGCzsImdgay-1782" value="Memex" style="rounded=1;whiteSpace=wrap;html=1;shadow=0;labelBackgroundColor=none;strokeColor=#005700;strokeWidth=3;fillColor=#008a00;fontFamily=Helvetica;fontSize=14;align=center;spacing=5;fontStyle=1;arcSize=7;perimeterSpacing=2;fontColor=#ffffff;" vertex="1" parent="1">
          <mxGeometry x="795" y="569.9999999999999" width="150" height="60" as="geometry" />
        </mxCell>
        <mxCell id="rBbMezTzvkGCzsImdgay-1783" value="Events" style="rounded=1;whiteSpace=wrap;html=1;shadow=0;labelBackgroundColor=none;strokeColor=#82b366;strokeWidth=3;fillColor=#d5e8d4;fontFamily=Helvetica;fontSize=14;align=center;spacing=5;fontStyle=0;arcSize=7;perimeterSpacing=2;" vertex="1" parent="1">
          <mxGeometry x="990" y="740" width="150" height="60" as="geometry" />
        </mxCell>
        <mxCell id="rBbMezTzvkGCzsImdgay-1784" value="" style="edgeStyle=none;rounded=1;jumpStyle=none;html=1;shadow=0;labelBackgroundColor=none;startArrow=none;startFill=0;jettySize=auto;orthogonalLoop=1;strokeColor=#005700;strokeWidth=3;fontFamily=Helvetica;fontSize=14;fontColor=#FFFFFF;spacing=5;fontStyle=1;fillColor=#008a00;exitX=0.81;exitY=0.953;exitDx=0;exitDy=0;exitPerimeter=0;" edge="1" parent="1" source="rBbMezTzvkGCzsImdgay-1782" target="rBbMezTzvkGCzsImdgay-1783">
          <mxGeometry relative="1" as="geometry" />
        </mxCell>
        <mxCell id="rBbMezTzvkGCzsImdgay-1785" value="Media" style="rounded=1;whiteSpace=wrap;html=1;shadow=0;labelBackgroundColor=none;strokeColor=#82b366;strokeWidth=3;fillColor=#d5e8d4;fontFamily=Helvetica;fontSize=14;align=center;spacing=5;fontStyle=0;arcSize=7;perimeterSpacing=2;" vertex="1" parent="1">
          <mxGeometry x="990" y="630" width="150" height="60" as="geometry" />
        </mxCell>
        <mxCell id="rBbMezTzvkGCzsImdgay-1786" value="" style="edgeStyle=none;rounded=1;jumpStyle=none;html=1;shadow=0;labelBackgroundColor=none;startArrow=none;startFill=0;jettySize=auto;orthogonalLoop=1;strokeColor=#005700;strokeWidth=3;fontFamily=Helvetica;fontSize=14;fontColor=#FFFFFF;spacing=5;fontStyle=1;fillColor=#008a00;" edge="1" parent="1" source="rBbMezTzvkGCzsImdgay-1782" target="rBbMezTzvkGCzsImdgay-1785">
          <mxGeometry relative="1" as="geometry" />
        </mxCell>
        <mxCell id="rBbMezTzvkGCzsImdgay-1787" value="Sponsoring" style="rounded=1;whiteSpace=wrap;html=1;shadow=0;labelBackgroundColor=none;strokeColor=#82b366;strokeWidth=3;fillColor=#d5e8d4;fontFamily=Helvetica;fontSize=14;align=center;spacing=5;fontStyle=0;arcSize=7;perimeterSpacing=2;" vertex="1" parent="1">
          <mxGeometry x="990" y="531" width="150" height="60" as="geometry" />
        </mxCell>
        <mxCell id="rBbMezTzvkGCzsImdgay-1788" value="" style="edgeStyle=none;rounded=1;jumpStyle=none;html=1;shadow=0;labelBackgroundColor=none;startArrow=none;startFill=0;jettySize=auto;orthogonalLoop=1;strokeColor=#005700;strokeWidth=3;fontFamily=Helvetica;fontSize=14;fontColor=#FFFFFF;spacing=5;fontStyle=1;fillColor=#008a00;" edge="1" parent="1" source="rBbMezTzvkGCzsImdgay-1782" target="rBbMezTzvkGCzsImdgay-1787">
          <mxGeometry relative="1" as="geometry" />
        </mxCell>
        <mxCell id="rBbMezTzvkGCzsImdgay-1791" value="Hubspot" style="rounded=1;whiteSpace=wrap;html=1;shadow=0;labelBackgroundColor=none;strokeColor=#23445d;strokeWidth=3;fillColor=#bac8d3;fontFamily=Helvetica;fontSize=16;align=center;fontStyle=1;spacing=5;arcSize=7;perimeterSpacing=2;" vertex="1" parent="1">
          <mxGeometry x="645" y="370" width="150" height="70" as="geometry" />
        </mxCell>
        <mxCell id="rBbMezTzvkGCzsImdgay-1792" value="Airbase" style="rounded=1;whiteSpace=wrap;html=1;shadow=0;labelBackgroundColor=none;strokeColor=#23445d;strokeWidth=3;fillColor=#bac8d3;fontFamily=Helvetica;fontSize=16;align=center;fontStyle=1;spacing=5;arcSize=7;perimeterSpacing=2;" vertex="1" parent="1">
          <mxGeometry x="470" y="440" width="150" height="70" as="geometry" />
        </mxCell>
        <mxCell id="rBbMezTzvkGCzsImdgay-1793" value="Retool" style="rounded=1;whiteSpace=wrap;html=1;shadow=0;labelBackgroundColor=none;strokeColor=#23445d;strokeWidth=3;fillColor=#bac8d3;fontFamily=Helvetica;fontSize=16;align=center;fontStyle=1;spacing=5;arcSize=7;perimeterSpacing=2;" vertex="1" parent="1">
          <mxGeometry x="700" y="254.5" width="150" height="70" as="geometry" />
        </mxCell>
        <mxCell id="rBbMezTzvkGCzsImdgay-1795" value="" style="edgeStyle=none;rounded=0;jumpStyle=none;html=1;shadow=0;labelBackgroundColor=none;startArrow=none;startFill=0;endArrow=classic;endFill=1;jettySize=auto;orthogonalLoop=1;strokeColor=#2F5B7C;strokeWidth=3;fontFamily=Helvetica;fontSize=16;fontColor=#23445D;spacing=5;exitX=0.097;exitY=0.043;exitDx=0;exitDy=0;entryX=1;entryY=0.75;entryDx=0;entryDy=0;exitPerimeter=0;" edge="1" parent="1" source="1749" target="1756">
          <mxGeometry relative="1" as="geometry">
            <mxPoint x="270.03718048702837" y="190" as="sourcePoint" />
            <mxPoint x="269.9980000000001" y="253.52800000000002" as="targetPoint" />
          </mxGeometry>
        </mxCell>
        <mxCell id="rBbMezTzvkGCzsImdgay-1796" value="" style="edgeStyle=none;rounded=0;jumpStyle=none;html=1;shadow=0;labelBackgroundColor=none;startArrow=none;startFill=0;endArrow=classic;endFill=1;jettySize=auto;orthogonalLoop=1;strokeColor=#2F5B7C;strokeWidth=3;fontFamily=Helvetica;fontSize=16;fontColor=#23445D;spacing=5;entryX=0.34;entryY=0.023;entryDx=0;entryDy=0;entryPerimeter=0;" edge="1" parent="1" target="rBbMezTzvkGCzsImdgay-1792">
          <mxGeometry relative="1" as="geometry">
            <mxPoint x="520" y="320" as="sourcePoint" />
            <mxPoint x="520" y="400" as="targetPoint" />
          </mxGeometry>
        </mxCell>
        <mxCell id="rBbMezTzvkGCzsImdgay-1797" value="" style="edgeStyle=none;rounded=0;jumpStyle=none;html=1;shadow=0;labelBackgroundColor=none;startArrow=none;startFill=0;endArrow=classic;endFill=1;jettySize=auto;orthogonalLoop=1;strokeColor=#2F5B7C;strokeWidth=3;fontFamily=Helvetica;fontSize=16;fontColor=#23445D;spacing=5;entryX=0;entryY=0;entryDx=0;entryDy=0;" edge="1" parent="1" source="rBbMezTzvkGCzsImdgay-1779" target="rBbMezTzvkGCzsImdgay-1791">
          <mxGeometry relative="1" as="geometry">
            <mxPoint x="590.0371804870283" y="306.47" as="sourcePoint" />
            <mxPoint x="589.998" y="369.99800000000005" as="targetPoint" />
          </mxGeometry>
        </mxCell>
        <mxCell id="rBbMezTzvkGCzsImdgay-1798" value="" style="edgeStyle=none;rounded=0;jumpStyle=none;html=1;shadow=0;labelBackgroundColor=none;startArrow=none;startFill=0;endArrow=classic;endFill=1;jettySize=auto;orthogonalLoop=1;strokeColor=#2F5B7C;strokeWidth=3;fontFamily=Helvetica;fontSize=16;fontColor=#23445D;spacing=5;entryX=0;entryY=0.25;entryDx=0;entryDy=0;exitX=1;exitY=0.25;exitDx=0;exitDy=0;" edge="1" parent="1" source="rBbMezTzvkGCzsImdgay-1779" target="rBbMezTzvkGCzsImdgay-1793">
          <mxGeometry relative="1" as="geometry">
            <mxPoint x="344.97718048702836" y="366.5" as="sourcePoint" />
            <mxPoint x="344.9380000000001" y="430.028" as="targetPoint" />
          </mxGeometry>
        </mxCell>
        <mxCell id="rBbMezTzvkGCzsImdgay-1799" value="" style="edgeStyle=none;rounded=1;jumpStyle=none;html=1;shadow=0;labelBackgroundColor=none;startArrow=none;startFill=0;jettySize=auto;orthogonalLoop=1;strokeColor=#E85642;strokeWidth=3;fontFamily=Helvetica;fontSize=14;fontColor=#FFFFFF;spacing=5;fontStyle=1;fillColor=#b0e3e6;exitX=0.955;exitY=0.102;exitDx=0;exitDy=0;exitPerimeter=0;" edge="1" parent="1" source="1753" target="rBbMezTzvkGCzsImdgay-1779">
          <mxGeometry relative="1" as="geometry">
            <mxPoint x="460" y="380" as="sourcePoint" />
            <mxPoint x="420" y="420" as="targetPoint" />
          </mxGeometry>
        </mxCell>
        <mxCell id="rBbMezTzvkGCzsImdgay-1801" value="" style="edgeStyle=none;rounded=1;jumpStyle=none;html=1;shadow=0;labelBackgroundColor=none;startArrow=none;startFill=0;jettySize=auto;orthogonalLoop=1;strokeColor=#E85642;strokeWidth=3;fontFamily=Helvetica;fontSize=14;fontColor=#FFFFFF;spacing=5;fontStyle=1;fillColor=#b0e3e6;entryX=0.75;entryY=1;entryDx=0;entryDy=0;exitX=0.853;exitY=0.044;exitDx=0;exitDy=0;exitPerimeter=0;" edge="1" parent="1" source="1753" target="1749">
          <mxGeometry relative="1" as="geometry">
            <mxPoint x="480" y="400" as="sourcePoint" />
            <mxPoint x="476.5" y="346.5" as="targetPoint" />
          </mxGeometry>
        </mxCell>
        <mxCell id="rBbMezTzvkGCzsImdgay-1802" value="" style="edgeStyle=none;rounded=1;jumpStyle=none;html=1;shadow=0;labelBackgroundColor=none;startArrow=none;startFill=0;jettySize=auto;orthogonalLoop=1;strokeColor=#E85642;strokeWidth=3;fontFamily=Helvetica;fontSize=14;fontColor=#FFFFFF;spacing=5;fontStyle=1;fillColor=#b0e3e6;" edge="1" parent="1" target="1760">
          <mxGeometry relative="1" as="geometry">
            <mxPoint x="360" y="440" as="sourcePoint" />
            <mxPoint x="486.5" y="356.5" as="targetPoint" />
          </mxGeometry>
        </mxCell>
        <mxCell id="rBbMezTzvkGCzsImdgay-1803" value="" style="edgeStyle=none;rounded=1;jumpStyle=none;html=1;shadow=0;labelBackgroundColor=none;startArrow=none;startFill=0;jettySize=auto;orthogonalLoop=1;strokeColor=#12AAB5;strokeWidth=3;fontFamily=Helvetica;fontSize=14;fontColor=#FFFFFF;spacing=5;fontStyle=1;fillColor=#b0e3e6;entryX=1;entryY=0.25;entryDx=0;entryDy=0;exitX=0;exitY=0;exitDx=0;exitDy=0;" edge="1" parent="1" source="1771" target="rBbMezTzvkGCzsImdgay-1793">
          <mxGeometry relative="1" as="geometry">
            <mxPoint x="971" y="318" as="sourcePoint" />
            <mxPoint x="929" y="222" as="targetPoint" />
          </mxGeometry>
        </mxCell>
        <mxCell id="rBbMezTzvkGCzsImdgay-1804" value="" style="edgeStyle=none;rounded=1;jumpStyle=none;html=1;shadow=0;labelBackgroundColor=none;startArrow=none;startFill=0;jettySize=auto;orthogonalLoop=1;strokeColor=#E85642;strokeWidth=3;fontFamily=Helvetica;fontSize=14;fontColor=#FFFFFF;spacing=5;fontStyle=1;fillColor=#b0e3e6;" edge="1" parent="1" target="rBbMezTzvkGCzsImdgay-1805">
          <mxGeometry relative="1" as="geometry">
            <mxPoint x="220" y="440" as="sourcePoint" />
          </mxGeometry>
        </mxCell>
        <mxCell id="rBbMezTzvkGCzsImdgay-1805" value="Jira" style="rounded=1;whiteSpace=wrap;html=1;shadow=0;labelBackgroundColor=none;strokeColor=none;strokeWidth=3;fillColor=#f08e81;fontFamily=Helvetica;fontSize=14;fontColor=#FFFFFF;align=center;spacing=5;fontStyle=0;arcSize=7;perimeterSpacing=2;" vertex="1" parent="1">
          <mxGeometry x="16" y="460" width="150" height="60" as="geometry" />
        </mxCell>
        <mxCell id="rBbMezTzvkGCzsImdgay-1806" value="" style="edgeStyle=none;rounded=1;jumpStyle=none;html=1;shadow=0;labelBackgroundColor=none;startArrow=none;startFill=0;jettySize=auto;orthogonalLoop=1;strokeColor=#E85642;strokeWidth=3;fontFamily=Helvetica;fontSize=14;fontColor=#FFFFFF;spacing=5;fontStyle=1;fillColor=#b0e3e6;" edge="1" parent="1" target="rBbMezTzvkGCzsImdgay-1807">
          <mxGeometry relative="1" as="geometry">
            <mxPoint x="220" y="440" as="sourcePoint" />
            <Array as="points">
              <mxPoint x="190" y="520" />
            </Array>
          </mxGeometry>
        </mxCell>
        <mxCell id="rBbMezTzvkGCzsImdgay-1807" value="Coda" style="rounded=1;whiteSpace=wrap;html=1;shadow=0;labelBackgroundColor=none;strokeColor=none;strokeWidth=3;fillColor=#f08e81;fontFamily=Helvetica;fontSize=14;fontColor=#FFFFFF;align=center;spacing=5;fontStyle=0;arcSize=7;perimeterSpacing=2;" vertex="1" parent="1">
          <mxGeometry x="14" y="540" width="150" height="60" as="geometry" />
        </mxCell>
        <mxCell id="rBbMezTzvkGCzsImdgay-1808" value="RingCentral" style="rounded=1;whiteSpace=wrap;html=1;shadow=0;labelBackgroundColor=none;strokeColor=#23445d;strokeWidth=3;fillColor=#bac8d3;fontFamily=Helvetica;fontSize=16;align=center;fontStyle=1;spacing=5;arcSize=7;perimeterSpacing=2;" vertex="1" parent="1">
          <mxGeometry x="860" y="430" width="150" height="70" as="geometry" />
        </mxCell>
        <mxCell id="rBbMezTzvkGCzsImdgay-1809" value="" style="edgeStyle=none;rounded=1;jumpStyle=none;html=1;shadow=0;labelBackgroundColor=none;startArrow=none;startFill=0;jettySize=auto;orthogonalLoop=1;strokeColor=#005700;strokeWidth=3;fontFamily=Helvetica;fontSize=14;fontColor=#FFFFFF;spacing=5;fontStyle=1;fillColor=#008a00;entryX=0.5;entryY=1;entryDx=0;entryDy=0;" edge="1" parent="1" source="rBbMezTzvkGCzsImdgay-1782" target="rBbMezTzvkGCzsImdgay-1808">
          <mxGeometry relative="1" as="geometry">
            <mxPoint x="957" y="594.6000000000001" as="sourcePoint" />
            <mxPoint x="998" y="586.3999999999999" as="targetPoint" />
          </mxGeometry>
        </mxCell>
        <mxCell id="rBbMezTzvkGCzsImdgay-1810" value="" style="edgeStyle=none;rounded=1;jumpStyle=none;html=1;shadow=0;labelBackgroundColor=none;startArrow=none;startFill=0;jettySize=auto;orthogonalLoop=1;strokeColor=#12AAB5;strokeWidth=3;fontFamily=Helvetica;fontSize=14;fontColor=#FFFFFF;spacing=5;fontStyle=1;fillColor=#b0e3e6;entryX=0.75;entryY=0;entryDx=0;entryDy=0;" edge="1" parent="1" source="1771" target="rBbMezTzvkGCzsImdgay-1808">
          <mxGeometry relative="1" as="geometry">
            <mxPoint x="1050" y="330" as="sourcePoint" />
            <mxPoint x="1079.1666666666665" y="302" as="targetPoint" />
          </mxGeometry>
        </mxCell>
        <mxCell id="rBbMezTzvkGCzsImdgay-1811" value="" style="edgeStyle=none;rounded=0;jumpStyle=none;html=1;shadow=0;labelBackgroundColor=none;startArrow=none;startFill=0;endArrow=classic;endFill=1;jettySize=auto;orthogonalLoop=1;strokeColor=#2F5B7C;strokeWidth=3;fontFamily=Helvetica;fontSize=16;fontColor=#23445D;spacing=5;entryX=1;entryY=0.5;entryDx=0;entryDy=0;exitX=0;exitY=0;exitDx=0;exitDy=0;" edge="1" parent="1" source="rBbMezTzvkGCzsImdgay-1808" target="rBbMezTzvkGCzsImdgay-1791">
          <mxGeometry relative="1" as="geometry">
            <mxPoint x="574.7579617834394" y="336.5" as="sourcePoint" />
            <mxPoint x="653" y="378" as="targetPoint" />
          </mxGeometry>
        </mxCell>
        <mxCell id="rBbMezTzvkGCzsImdgay-1812" value="" style="edgeStyle=none;rounded=0;jumpStyle=none;html=1;shadow=0;labelBackgroundColor=none;startArrow=none;startFill=0;endArrow=classic;endFill=1;jettySize=auto;orthogonalLoop=1;strokeColor=#2F5B7C;strokeWidth=3;fontFamily=Helvetica;fontSize=16;fontColor=#23445D;spacing=5;entryX=1;entryY=0.75;entryDx=0;entryDy=0;exitX=0.25;exitY=0;exitDx=0;exitDy=0;" edge="1" parent="1" source="rBbMezTzvkGCzsImdgay-1808" target="rBbMezTzvkGCzsImdgay-1779">
          <mxGeometry relative="1" as="geometry">
            <mxPoint x="868" y="438" as="sourcePoint" />
            <mxPoint x="807" y="415" as="targetPoint" />
            <Array as="points">
              <mxPoint x="800" y="350" />
            </Array>
          </mxGeometry>
        </mxCell>
        <mxCell id="rBbMezTzvkGCzsImdgay-1813" value="" style="edgeStyle=none;rounded=0;jumpStyle=none;html=1;shadow=0;labelBackgroundColor=none;startArrow=none;startFill=0;endArrow=classic;endFill=1;jettySize=auto;orthogonalLoop=1;strokeColor=#F08705;strokeWidth=3;fontFamily=Helvetica;fontSize=14;fontColor=#FFFFFF;spacing=5;entryX=0.25;entryY=0;entryDx=0;entryDy=0;" edge="1" parent="1" target="rBbMezTzvkGCzsImdgay-1793">
          <mxGeometry relative="1" as="geometry">
            <mxPoint x="660" y="180" as="sourcePoint" />
            <mxPoint x="645" y="82" as="targetPoint" />
          </mxGeometry>
        </mxCell>
        <mxCell id="rBbMezTzvkGCzsImdgay-1814" value="" style="edgeStyle=none;rounded=0;jumpStyle=none;html=1;shadow=0;labelBackgroundColor=none;startArrow=none;startFill=0;endArrow=classic;endFill=1;jettySize=auto;orthogonalLoop=1;strokeColor=#F08705;strokeWidth=3;fontFamily=Helvetica;fontSize=14;fontColor=#FFFFFF;spacing=5;entryX=0.329;entryY=0.014;entryDx=0;entryDy=0;entryPerimeter=0;" edge="1" parent="1" target="rBbMezTzvkGCzsImdgay-1791">
          <mxGeometry relative="1" as="geometry">
            <mxPoint x="660" y="180" as="sourcePoint" />
            <mxPoint x="746.5" y="262.5" as="targetPoint" />
            <Array as="points">
              <mxPoint x="670" y="280" />
            </Array>
          </mxGeometry>
        </mxCell>
        <mxCell id="rBbMezTzvkGCzsImdgay-1815" value="" style="edgeStyle=none;rounded=0;jumpStyle=none;html=1;shadow=0;labelBackgroundColor=none;startArrow=none;startFill=0;endArrow=classic;endFill=1;jettySize=auto;orthogonalLoop=1;strokeColor=#F08705;strokeWidth=3;fontFamily=Helvetica;fontSize=14;fontColor=#FFFFFF;spacing=5;entryX=0.75;entryY=0;entryDx=0;entryDy=0;" edge="1" parent="1" target="rBbMezTzvkGCzsImdgay-1792">
          <mxGeometry relative="1" as="geometry">
            <mxPoint x="660" y="170" as="sourcePoint" />
            <mxPoint x="703.6659999999997" y="379.03600000000006" as="targetPoint" />
          </mxGeometry>
        </mxCell>
        <mxCell id="rBbMezTzvkGCzsImdgay-1817" value="&lt;font style=&quot;font-size: 20px;&quot;&gt;Services and Software Mind Map&amp;nbsp;&lt;/font&gt;" style="text;html=1;resizable=0;autosize=1;align=center;verticalAlign=middle;points=[];fillColor=none;strokeColor=none;rounded=0;" vertex="1" parent="1">
          <mxGeometry x="14" y="10" width="320" height="40" as="geometry" />
        </mxCell>
      </root>
    </mxGraphModel>
  </diagram>
</mxfile>
